HIERARCHY
ROOT Hips
{
	OFFSET -3.958830 18.904000 13.208200
	CHANNELS 6 Xposition Yposition Zposition Zrotation Yrotation Xrotation 
	JOINT LHipJoint
	{
		OFFSET 0.000000 0.000000 0.000000
		CHANNELS 3 Zrotation Yrotation Xrotation
		JOINT LeftUpLeg
		{
			OFFSET 1.800000 -1.400000 0.085000
			CHANNELS 3 Zrotation Yrotation Xrotation
			JOINT LeftLeg
			{
				OFFSET 2.215000 -6.000000 0.000000
				CHANNELS 3 Zrotation Yrotation Xrotation
				JOINT LeftFoot
				{
					OFFSET 2.500000 -6.900000 0.000000
					CHANNELS 3 Zrotation Yrotation Xrotation
					JOINT LeftToeBase
					{
						OFFSET 0.200000 -0.500000 1.950000
						CHANNELS 3 Zrotation Yrotation Xrotation
						End Site
						{
							OFFSET 0.000000 0.000000 0.000000
						}
					}
				}
			}
		}
	}
	JOINT RHipJoint
	{
		OFFSET 0.000000 0.000000 0.000000
		CHANNELS 3 Zrotation Yrotation Xrotation
		JOINT RightUpLeg
		{
			OFFSET -1.800000 -1.400000 0.085000
			CHANNELS 3 Zrotation Yrotation Xrotation
			JOINT RightLeg
			{
				OFFSET -2.215000 -6.000000 0.000000
				CHANNELS 3 Zrotation Yrotation Xrotation
				JOINT RightFoot
				{
					OFFSET -2.500000 -6.900000 0.000000
					CHANNELS 3 Zrotation Yrotation Xrotation
					JOINT RightToeBase
					{
						OFFSET -0.200000 -0.500000 1.950000
						CHANNELS 3 Zrotation Yrotation Xrotation
						End Site
						{
							OFFSET 0.000000 0.000000 0.000000
						}
					}
				}
			}
		}
	}
	JOINT LowerBack
	{
		OFFSET 0.000000 0.000000 0.000000
		CHANNELS 3 Zrotation Yrotation Xrotation
		JOINT Spine
		{
			OFFSET -0.087000 1.940000 -0.288900
			CHANNELS 3 Zrotation Yrotation Xrotation
			JOINT Spine1
			{
				OFFSET 0.000000 1.950000 0.060000
				CHANNELS 3 Zrotation Yrotation Xrotation
				JOINT Neck
				{
					OFFSET 0.000000 0.000000 0.000000
					CHANNELS 3 Zrotation Yrotation Xrotation
					JOINT Neck1
					{
						OFFSET 0.000000 1.600000 0.340000
						CHANNELS 3 Zrotation Yrotation Xrotation
						JOINT Head
						{
							OFFSET 0.000000 1.667000 -0.240000
							CHANNELS 3 Zrotation Yrotation Xrotation
							End Site
							{
								OFFSET 0.000000 0.000000 0.000000
							}
						}
					}
				}
				JOINT LeftShoulder
				{
					OFFSET 0.000000 0.000000 0.000000
					CHANNELS 3 Zrotation Yrotation Xrotation
					JOINT LeftArm
					{
						OFFSET 2.700000 1.550000 -0.730000
						CHANNELS 3 Zrotation Yrotation Xrotation
						JOINT LeftForeArm
						{
							OFFSET 5.450000 0.000000 0.000000
							CHANNELS 3 Zrotation Yrotation Xrotation
							JOINT LeftHand
							{
								OFFSET 3.450000 0.000000 0.000000
								CHANNELS 3 Zrotation Yrotation Xrotation
								JOINT LeftHandIndex1
								{
									OFFSET 0.750000 0.000000 0.000000
									CHANNELS 3 Zrotation Yrotation Xrotation
									End Site
									{
										OFFSET 0.000000 0.000000 0.000000
									}
								}
							}
						}
					}
				}
				JOINT RightShoulder
				{
					OFFSET 0.000000 0.000000 0.000000
					CHANNELS 3 Zrotation Yrotation Xrotation
					JOINT RightArm
					{
						OFFSET -2.700000 1.550000 -0.730000
						CHANNELS 3 Zrotation Yrotation Xrotation
						JOINT RightForeArm
						{
							OFFSET -5.450000 0.000000 0.000000
							CHANNELS 3 Zrotation Yrotation Xrotation
							JOINT RightHand
							{
								OFFSET -3.450000 0.000000 0.000000
								CHANNELS 3 Zrotation Yrotation Xrotation
								JOINT RightHandIndex1
								{
									OFFSET -0.750000 0.000000 0.000000
									CHANNELS 3 Zrotation Yrotation Xrotation
									End Site
									{
										OFFSET 0.000000 0.000000 0.000000
									}
								}
							}
						}
					}
				}
			}
		}
	}
}
MOTION
Frames: 13
Frame Time: 0.016667
-0.165000 16.393980 -1.144930 -0.576242 6.436936 -3.433198 -15.328234 13.316507 3.408996 2.556769 0.197645 -3.094528 -10.115513 4.506269 -0.868721 -0.665088 5.021166 3.189387 0.301330 0.208840 0.007160 18.146340 -10.780614 2.242558 -5.601411 1.649189 -14.742304 5.305192 -5.616263 22.934313 0.090686 -4.526564 2.778905 0.611340 0.960450 0.284290 -3.288366 -2.221080 -7.341787 7.153227 -2.493189 14.669273 -2.857341 -1.991681 8.722352 1.340015 -0.437021 -6.374233 -1.091759 0.846152 22.335391 -4.864900 -1.047130 -1.169780 2.600716 -9.562636 -0.476943 31.442671 -24.923932 -11.241948 82.636924 13.639377 6.946832 -4.856151 3.276478 -0.184600 0.819530 -0.590790 0.269380 -4.873244 9.967509 1.882459 -22.457205 10.654819 -11.319699 -108.867987 -13.795857 13.785551 2.127511 -2.586152 -0.446980 0.472010 0.184290 -0.015490 
-0.161660 16.393030 -1.154150 -0.654195 6.260175 -3.247716 -15.307930 13.283433 3.383530 2.489092 0.151953 -3.405447 -10.079711 4.514951 -0.644162 -0.688312 4.998243 3.202133 0.292960 0.203090 -0.003390 18.169812 -10.802516 2.254050 -5.388810 1.711658 -15.014515 5.166339 -5.581837 23.084349 0.100454 -4.527844 2.784468 0.616400 0.979200 0.278870 -3.347265 -2.117378 -7.312522 7.468569 -2.550174 14.240803 -2.971138 -2.056085 8.916305 1.223410 -0.465083 -6.339172 -1.086621 1.025845 22.128185 -4.831920 -0.943420 -1.016950 2.653098 -9.629150 -0.514007 31.580719 -24.507085 -11.096511 80.321455 13.325671 6.278145 -4.871723 3.268057 -0.190000 0.833640 -0.604270 0.271480 -4.691390 10.010223 1.885970 -22.661144 11.038322 -11.301474 -107.203284 -13.052086 12.352760 2.109204 -2.569820 -0.460010 0.485440 0.191130 -0.015270 
-0.155750 16.389750 -1.176020 -0.693827 6.062028 -3.238606 -15.285636 13.278957 3.340582 2.448172 0.119878 -3.677514 -9.764435 4.547082 -0.064607 -0.724627 4.959531 3.216080 0.298380 0.214520 0.001490 18.190478 -10.845422 2.257277 -5.278740 1.695061 -15.170284 4.777027 -5.449794 22.984998 0.107798 -4.486377 2.800662 0.632570 0.989260 0.272850 -3.405906 -2.024452 -7.267220 7.718328 -2.679127 14.000337 -2.974641 -2.257221 9.157477 1.025757 -0.533552 -6.227219 -1.135691 1.345599 21.835759 -4.792900 -0.735250 -1.206000 2.541153 -9.718111 -0.634652 32.255919 -23.815992 -10.890702 75.524986 12.599468 4.973006 -4.884175 3.247122 -0.187540 0.841450 -0.605840 0.273690 -4.157956 10.123174 1.841676 -23.706565 11.801542 -11.298135 -103.094129 -11.466551 9.470759 2.080539 -2.524280 -0.472230 0.506100 0.191600 -0.018350 
-0.149280 16.388750 -1.200770 -0.736540 5.579374 -3.171438 -15.245107 13.242629 3.284699 2.355784 0.059844 -4.073968 -9.496150 4.597845 0.675119 -0.766236 4.914754 3.235851 0.296640 0.219640 -0.011940 18.229384 -10.912915 2.270824 -5.158669 1.699140 -15.454546 4.493187 -5.361709 23.005429 0.125792 -4.481165 2.805686 0.652240 1.015450 0.260930 -3.512063 -1.831134 -7.211017 8.188250 -2.729101 13.614564 -3.254464 -2.256111 9.385184 0.804171 -0.584692 -6.093475 -1.115835 1.710658 21.381162 -4.550820 -0.617700 -0.950660 2.536879 -9.698664 -0.792636 32.950154 -23.390607 -10.571072 69.638501 11.204629 3.248459 -4.901426 3.238825 -0.201860 0.859330 -0.629880 0.279970 -3.710779 10.102685 1.793945 -24.624240 12.550456 -11.146441 -97.420031 -9.110896 5.787658 2.049559 -2.492384 -0.490650 0.524530 0.196980 -0.015930 
-0.144430 16.394170 -1.235350 -0.727576 4.940082 -3.365270 -15.205606 13.231294 3.228171 2.118502 0.005358 -4.395377 -8.902940 4.617742 1.612189 -0.794563 4.830754 3.258198 0.314690 0.239440 -0.006760 18.261346 -10.994495 2.288998 -5.046156 1.683206 -15.603124 4.219731 -5.330326 23.276370 0.121696 -4.499347 2.791997 0.665850 1.014110 0.263900 -3.605386 -1.654674 -7.170257 8.576176 -2.733673 13.669800 -3.616927 -2.142540 9.595424 0.682778 -0.630266 -5.999247 -1.107470 1.891976 21.110406 -4.270480 -0.645420 -0.943000 2.744109 -9.584712 -0.959551 33.288025 -23.088912 -10.078259 63.353422 8.764252 1.207000 -4.896200 3.244801 -0.207730 0.857450 -0.630960 0.285550 -3.689804 10.037067 1.795913 -25.224232 13.136913 -10.914790 -90.463983 -6.102555 1.867742 2.033067 -2.467525 -0.483510 0.520740 0.190610 -0.012760 
-0.135520 16.402560 -1.270540 -0.919812 4.363237 -3.364722 -15.153267 13.203516 3.157541 1.961865 -0.122200 -5.039568 -8.331099 4.627319 2.705122 -0.805779 4.702082 3.289373 0.347160 0.287430 0.000360 18.308228 -11.075070 2.318118 -4.770633 1.708699 -15.995649 4.071426 -5.389501 23.916632 0.101608 -4.544524 2.767921 0.682820 1.000290 0.267990 -3.739322 -1.447528 -7.120427 9.426894 -2.883775 13.316457 -4.154461 -2.114610 9.817553 0.593652 -0.732995 -5.782898 -1.238955 2.092130 21.126282 -3.859880 -0.682300 -1.026470 3.335370 -9.048737 -1.170648 32.623086 -23.676864 -9.394963 57.553283 5.873652 -0.560535 -4.867952 3.262226 -0.221980 0.845690 -0.617700 0.298510 -4.142828 9.466133 1.606814 -25.473877 14.481557 -10.376760 -82.437965 -2.403409 -1.830261 2.028609 -2.445717 -0.454580 0.509750 0.169250 0.002440 
-0.130980 16.412980 -1.311390 -1.096056 3.961529 -3.486767 -15.119989 13.210027 3.090694 1.831674 -0.275190 -5.801040 -7.741437 4.663152 4.079145 -0.853019 4.594804 3.302811 0.386990 0.339810 0.034940 18.333525 -11.142503 2.343565 -4.443896 1.773921 -16.325202 3.809015 -5.501577 25.111844 0.075368 -4.646881 2.721165 0.716840 0.969460 0.264650 -3.817488 -1.321321 -7.079231 10.032766 -2.911996 13.250265 -4.438122 -2.003400 9.881887 0.689914 -0.776409 -5.415954 -1.274625 1.913952 21.114995 -4.172140 -0.712160 -1.405950 3.854972 -8.249000 -1.628347 31.652347 -25.454198 -8.718836 52.240298 2.517021 -2.082065 -4.839801 3.254913 -0.225070 0.838150 -0.602230 0.295680 -4.881777 8.659052 1.332058 -25.481275 15.917789 -9.582726 -73.915422 1.681681 -4.796739 2.008108 -2.417427 -0.441270 0.506620 0.148460 -0.006000 
-0.129640 16.419240 -1.352600 -1.191129 3.689049 -3.352607 -15.101202 13.207938 3.031942 1.663136 -0.485488 -6.843964 -7.289941 4.681234 5.378840 -0.910046 4.510429 3.313123 0.426130 0.389560 0.071320 18.349439 -11.179262 2.370025 -4.168765 1.942198 -16.897637 3.701316 -5.735639 26.836004 0.041622 -4.837118 2.633948 0.757910 0.957480 0.275350 -3.863042 -1.234555 -7.034411 10.377084 -2.884605 12.894758 -4.545764 -1.886022 9.744934 0.858773 -0.862065 -4.907754 -1.362639 1.773355 20.934179 -4.801000 -0.643920 -1.546240 4.286035 -7.157675 -2.215397 29.882888 -27.929605 -7.824447 48.240797 -1.046311 -3.258482 -4.830189 3.263468 -0.242590 0.852620 -0.597810 0.293960 -5.659442 7.640438 0.889713 -25.573763 18.057816 -8.545425 -64.986516 5.648014 -6.657242 1.975123 -2.400962 -0.430910 0.503800 0.133360 -0.013620 
-0.129330 16.425700 -1.393440 -1.457519 3.263562 -3.418013 -15.072797 13.189861 2.981737 1.788953 -0.648792 -7.558365 -7.046129 4.719806 6.380690 -0.966237 4.482485 3.309673 0.464550 0.430730 0.094460 18.376977 -11.219334 2.400196 -3.616803 2.143339 -17.059822 3.334236 -5.902204 28.727644 -0.005817 -5.062670 2.543630 0.798200 0.957480 0.280700 -3.935933 -1.115982 -7.008633 11.075001 -2.903568 12.753189 -4.968621 -1.755225 9.546882 1.089407 -0.995169 -4.351901 -1.547550 1.943669 20.943806 -4.870750 -0.585090 -1.729100 4.714808 -5.938913 -2.787247 27.149592 -30.404062 -6.524570 45.633683 -5.615564 -4.454927 -4.800436 3.273962 -0.242010 0.860780 -0.598180 0.301690 -6.578963 6.485024 0.321951 -24.675945 20.746448 -7.352328 -56.926634 9.318685 -7.657684 1.932264 -2.384773 -0.434130 0.513690 0.124590 -0.021140 
-0.131250 16.435140 -1.440380 -1.853845 2.425445 -3.721468 -15.037871 13.170679 2.930371 2.065717 -0.737463 -7.946077 -6.722708 4.747797 7.187376 -0.998236 4.464476 3.307371 0.481330 0.451260 0.115240 18.409561 -11.265950 2.444590 -2.908711 2.409620 -16.968600 2.817139 -6.025780 30.814498 -0.063203 -5.323762 2.448394 0.816890 0.953600 0.286190 -4.018436 -0.970384 -7.002868 11.991842 -2.872194 12.909144 -5.518930 -1.579137 9.410178 1.442473 -1.168277 -3.865768 -1.799307 2.160333 21.155288 -5.277030 -0.215360 -1.731120 5.079873 -4.771501 -3.299609 23.416516 -32.509664 -4.740474 43.640930 -11.380897 -5.706532 -4.765655 3.274014 -0.242690 0.871260 -0.593300 0.301250 -7.691522 5.469374 -0.190896 -22.403970 23.513098 -5.799938 -50.126349 13.633170 -8.408176 1.883178 -2.362844 -0.435560 0.516250 0.117570 -0.029970 
-0.136730 16.444070 -1.481900 -2.096823 1.530927 -3.799526 -15.006140 13.139011 2.891065 2.246856 -0.834260 -8.414358 -6.559074 4.787895 7.882613 -1.027737 4.440217 3.302346 0.494770 0.467660 0.139320 18.440924 -11.313653 2.475097 -2.328120 2.586115 -16.660742 2.286539 -6.008712 32.175571 -0.104743 -5.488349 2.386951 0.832250 0.940700 0.277620 -4.093378 -0.816051 -6.985773 12.665391 -2.689062 12.751125 -5.907819 -1.366802 9.171741 1.689793 -1.326074 -3.336767 -2.045213 2.401509 21.504185 -5.413580 0.078530 -1.886250 5.311183 -3.638012 -3.806058 19.119279 -34.532190 -2.609078 41.603171 -17.697039 -6.848089 -4.712868 3.264572 -0.236600 0.866910 -0.586640 0.292480 -8.457919 4.507678 -0.785620 -19.588169 26.270857 -3.920330 -44.460954 19.067032 -8.955830 1.818061 -2.321599 -0.440730 0.524880 0.113010 -0.041560 
-0.146000 16.447690 -1.520950 -2.362465 0.668689 -3.487057 -14.972963 13.079034 2.856268 2.403268 -0.974900 -9.196281 -6.405594 4.758085 8.307529 -1.051916 4.364392 3.308696 0.514290 0.495570 0.156280 18.477281 -11.356669 2.510737 -1.695583 2.760406 -16.527495 1.792322 -5.889774 32.991780 -0.138440 -5.569980 2.354905 0.845150 0.920540 0.276770 -4.178714 -0.619170 -6.959639 13.361068 -2.405842 12.092149 -6.289464 -1.151325 8.928695 2.006773 -1.356308 -2.856532 -2.095354 2.671201 22.069357 -5.384760 0.379380 -2.110970 5.523240 -2.746318 -4.224807 14.403056 -36.138439 -0.218879 39.197704 -24.150974 -7.737063 -4.649570 3.269574 -0.230940 0.856870 -0.570910 0.289070 -9.324252 3.698528 -1.404834 -15.771216 28.980415 -1.712136 -39.231471 24.529288 -9.043551 1.745141 -2.289482 -0.430860 0.522230 0.104780 -0.046070 
-0.157160 16.447140 -1.556920 -2.395036 0.001992 -2.707959 -14.965408 13.026509 2.838510 2.180449 -1.207318 -10.491389 -6.054749 4.639013 8.771420 -1.098485 4.238620 3.327140 0.548680 0.530120 0.201130 18.491603 -11.383452 2.524625 -1.175273 2.822377 -16.474857 1.212042 -5.603984 32.935776 -0.152252 -5.516821 2.364130 0.863360 0.886920 0.288420 -4.199229 -0.479738 -6.905625 13.364718 -1.872534 10.799951 -6.150149 -0.820181 8.555975 2.410952 -1.195388 -2.314680 -1.862509 2.664669 22.808847 -5.821580 0.719210 -2.498270 5.540162 -1.965382 -4.719384 9.385721 -37.899155 2.445378 35.985719 -30.649981 -8.236169 -4.590992 3.279270 -0.216590 0.848790 -0.542800 0.282960 -10.117819 2.969876 -2.132308 -11.572361 31.565943 0.847225 -33.275348 29.704265 -8.380034 1.663546 -2.268915 -0.418060 0.512870 0.087890 -0.062010 
